<?xml version="1.0" standalone="no"?>
<!DOCTYPE svg PUBLIC "-//W3C//DTD SVG 20010904//EN"
 "http://www.w3.org/TR/2001/REC-SVG-20010904/DTD/svg10.dtd">
<svg version="1.0" xmlns="http://www.w3.org/2000/svg"
 width="1189.000000pt" height="1318.000000pt" viewBox="0 0 1189.000000 1318.000000"
 preserveAspectRatio="xMidYMid meet">
<metadata>
Created by potrace 1.16, written by Peter Selinger 2001-2019
</metadata>
<g transform="translate(0.000000,1318.000000) scale(0.100000,-0.100000)"
fill="#000000" stroke="none">
<path d="M8337 12529 c-248 -21 -522 -95 -725 -198 l-59 -30 -34 21 c-68 42
-217 101 -324 128 -502 128 -1032 -10 -1661 -431 -56 -37 -109 -75 -119 -85
-17 -17 -19 -17 -64 0 -448 173 -873 198 -1257 75 -269 -86 -477 -221 -709
-460 -452 -466 -777 -987 -865 -1388 -11 -47 -31 -129 -45 -181 -38 -141 -65
-310 -72 -445 -5 -116 8 -301 27 -375 20 -78 41 -286 47 -465 5 -168 3 -201
-15 -285 -27 -126 -36 -257 -24 -355 6 -44 9 -81 7 -83 -2 -2 -43 7 -92 20
-78 20 -110 23 -278 23 -221 -1 -300 -16 -456 -86 -345 -155 -612 -397 -758
-687 -61 -121 -151 -432 -186 -642 -38 -230 -29 -497 25 -719 46 -189 97 -310
243 -589 96 -181 137 -344 117 -466 -5 -35 -34 -124 -64 -198 -130 -324 -189
-579 -202 -873 -13 -280 46 -565 163 -785 46 -85 51 -145 24 -275 -59 -285
-41 -624 45 -880 55 -165 163 -339 271 -435 48 -43 51 -50 67 -129 74 -364
316 -633 643 -713 119 -29 285 -28 398 1 245 64 448 229 562 456 37 73 80 205
89 274 l6 50 77 -38 c324 -163 725 -173 1070 -27 l85 36 62 -25 c279 -112 665
-94 947 44 56 27 114 57 128 67 26 17 28 16 120 -29 111 -54 176 -73 286 -85
311 -35 631 117 799 380 26 40 48 75 50 77 2 2 45 -5 96 -15 113 -21 321 -24
428 -5 198 35 415 130 577 252 29 21 54 39 57 39 2 0 14 -33 26 -72 120 -399
502 -656 907 -611 116 13 235 50 318 100 46 27 87 41 177 59 348 70 611 206
839 434 291 291 592 806 719 1231 62 206 71 297 77 699 8 504 -14 867 -73
1260 -14 91 -27 172 -30 181 -3 11 10 25 37 43 59 40 158 141 204 211 82 125
142 305 165 500 8 67 18 108 31 126 65 91 134 303 164 505 33 218 29 500 -10
804 -8 63 -26 210 -40 325 -42 337 -85 505 -181 700 -73 149 -151 251 -284
369 -111 99 -361 253 -507 312 -85 34 -91 46 -67 136 20 80 35 109 98 188 92
115 145 211 189 340 150 441 35 1004 -283 1375 -28 33 -110 148 -183 255 -296
438 -429 581 -714 772 -333 223 -717 328 -1086 297z m446 -233 c363 -85 745
-339 973 -646 39 -52 137 -192 218 -310 82 -118 178 -252 214 -296 196 -240
305 -600 273 -905 -22 -210 -81 -358 -207 -524 -85 -112 -105 -151 -135 -268
-17 -69 -20 -98 -14 -183 4 -56 10 -106 14 -112 3 -5 49 -24 101 -41 181 -61
456 -227 583 -353 162 -161 262 -371 317 -663 18 -97 59 -422 91 -720 17 -151
14 -451 -5 -575 -20 -131 -68 -315 -97 -372 -12 -24 -36 -63 -53 -88 -28 -40
-33 -58 -44 -158 -15 -132 -33 -219 -67 -307 -55 -147 -168 -276 -300 -342
-38 -20 -71 -36 -72 -37 -1 -1 2 -19 7 -41 41 -174 89 -522 112 -810 17 -213
17 -977 -1 -1100 -53 -380 -272 -846 -588 -1253 -164 -211 -362 -359 -600
-450 -106 -41 -250 -78 -338 -87 -53 -6 -80 -15 -113 -37 -119 -82 -275 -125
-411 -113 -227 19 -435 160 -531 360 -52 107 -70 180 -76 305 -5 78 -12 121
-31 170 -14 36 -27 67 -29 69 -2 2 -14 -9 -26 -25 -54 -71 -209 -219 -287
-275 -149 -106 -318 -179 -481 -209 -92 -17 -271 -14 -365 5 -65 14 -166 48
-241 81 -6 3 -18 -22 -28 -58 -46 -166 -172 -320 -323 -395 -244 -123 -515
-89 -716 87 l-47 42 -55 -49 c-105 -94 -261 -167 -425 -200 -46 -9 -132 -15
-220 -15 -171 0 -258 19 -387 82 l-82 41 -113 -55 c-195 -95 -378 -129 -579
-107 -257 28 -464 124 -657 308 -77 73 -84 77 -98 62 -14 -16 -14 -28 1 -119
26 -154 18 -319 -22 -433 -41 -115 -84 -186 -164 -266 -120 -121 -251 -179
-421 -188 -127 -7 -201 8 -313 62 -76 36 -103 57 -166 122 -41 43 -89 104
-107 136 -44 79 -88 214 -102 319 -12 84 -13 87 -50 113 -127 88 -231 246
-294 443 -63 199 -74 517 -26 742 17 81 21 126 18 197 -5 86 -8 98 -66 220
-86 182 -115 288 -132 485 -25 274 41 643 170 953 23 55 53 135 66 177 71 234
23 457 -173 813 -162 292 -235 627 -204 935 20 197 96 509 161 661 101 239
319 459 590 599 133 68 217 96 336 111 197 24 389 -7 562 -91 64 -32 99 -44
104 -37 4 6 16 63 28 126 20 105 21 124 10 196 -16 106 -8 310 16 390 34 114
19 473 -33 775 -46 266 -35 476 38 756 17 65 41 164 54 219 31 132 62 212 145
374 213 410 647 932 940 1131 150 102 343 177 542 211 105 18 149 21 303 16
258 -8 475 -60 688 -165 l99 -49 51 59 c53 60 171 146 352 255 259 156 528
260 770 298 162 26 394 17 530 -19 110 -30 281 -107 356 -161 l48 -34 58 35
c170 103 365 171 613 215 155 27 414 21 563 -15z"/>
<path d="M8295 12115 c-136 -19 -270 -55 -395 -104 -117 -45 -193 -89 -291
-167 l-67 -53 -23 25 c-43 46 -163 132 -234 167 -151 76 -266 101 -455 101
-109 -1 -170 -6 -246 -22 -250 -53 -510 -173 -803 -368 -70 -46 -113 -86 -172
-155 -44 -51 -89 -108 -101 -127 -18 -29 -22 -31 -38 -20 -137 101 -229 150
-378 202 -431 150 -889 93 -1218 -152 -102 -76 -320 -301 -457 -472 -259 -322
-461 -684 -497 -890 -4 -25 -26 -115 -48 -201 -70 -266 -78 -420 -37 -660 34
-204 45 -314 51 -559 6 -199 5 -221 -15 -295 -32 -120 -37 -216 -16 -328 17
-90 17 -100 1 -193 -32 -183 -65 -296 -116 -400 -28 -55 -50 -106 -50 -112 0
-7 -1 -12 -2 -12 -2 0 -41 37 -88 83 -148 144 -306 207 -515 208 -169 0 -257
-23 -411 -109 -114 -63 -199 -128 -290 -225 -139 -147 -198 -272 -268 -569
-48 -200 -60 -303 -53 -465 10 -256 63 -429 218 -713 129 -235 189 -436 189
-633 0 -144 -20 -231 -95 -422 -131 -328 -170 -510 -169 -795 1 -178 3 -204
27 -293 14 -53 53 -155 87 -227 91 -192 108 -316 70 -500 -88 -414 -12 -801
192 -985 27 -25 72 -57 99 -72 55 -29 53 -24 69 -171 6 -56 18 -126 27 -155
89 -299 362 -434 623 -306 169 84 271 280 256 497 -3 46 -17 133 -32 192 l-27
109 48 48 c72 71 140 156 172 212 15 28 33 53 39 55 7 3 29 -21 50 -52 158
-240 344 -383 585 -449 100 -28 338 -25 443 5 100 29 223 90 300 149 l59 45
26 -21 c155 -127 289 -169 496 -158 137 8 217 27 320 77 100 48 201 139 266
238 26 39 49 77 51 84 8 23 65 -23 77 -63 15 -51 92 -152 143 -189 95 -69 215
-100 320 -81 203 36 345 188 372 400 7 55 19 98 33 121 12 19 29 55 39 80 9
25 19 47 20 49 2 2 25 -16 51 -39 148 -130 356 -200 554 -186 323 22 656 258
841 593 l39 71 54 -24 c30 -13 75 -29 99 -35 l44 -11 7 -61 c10 -88 40 -197
68 -254 22 -42 25 -61 25 -154 -1 -204 68 -345 214 -440 159 -102 380 -88 515
35 34 30 48 36 85 36 74 0 216 29 327 66 281 94 461 244 683 569 201 295 347
611 410 891 22 95 23 117 23 594 0 492 -5 608 -41 895 -22 180 -61 393 -100
549 -19 76 -34 139 -32 140 2 1 38 7 80 13 101 14 178 52 249 122 95 96 140
223 160 453 l11 132 43 55 c56 71 79 123 109 249 36 147 50 310 43 497 -5 147
-72 755 -98 885 -65 335 -178 518 -416 674 -207 136 -359 201 -496 212 l-75 7
-11 86 c-7 47 -14 151 -18 231 -5 128 -3 155 17 230 38 148 83 237 171 338
119 137 178 336 166 560 -13 248 -98 463 -257 653 -30 36 -95 125 -145 198
-161 237 -266 385 -322 451 -160 192 -442 383 -683 464 -174 58 -378 76 -555
51z m380 -214 c192 -39 391 -145 578 -306 103 -89 169 -172 371 -468 93 -136
194 -276 226 -313 137 -158 221 -407 206 -614 -10 -148 -47 -240 -144 -362
-77 -95 -124 -181 -161 -295 -54 -166 -63 -241 -51 -410 13 -175 34 -337 57
-449 l16 -81 49 19 c151 57 305 16 558 -149 223 -147 303 -294 354 -648 29
-207 75 -620 82 -740 8 -148 -8 -325 -42 -467 -29 -121 -60 -173 -123 -210
l-39 -22 -5 -166 c-7 -221 -35 -328 -104 -391 -45 -43 -87 -59 -150 -59 -112
0 -199 72 -224 185 -10 47 -10 80 6 208 17 143 17 155 1 209 -10 36 -31 74
-56 104 -75 86 -120 205 -120 316 0 32 -4 58 -8 58 -8 0 -48 -227 -73 -415
-21 -150 -5 -224 136 -620 152 -426 212 -691 254 -1125 30 -303 41 -850 21
-1120 -15 -215 -68 -381 -208 -655 -141 -276 -327 -531 -471 -647 -174 -140
-440 -229 -646 -216 l-63 4 -27 -43 c-50 -80 -147 -116 -246 -93 -41 10 -64
24 -105 64 -71 70 -89 130 -81 275 l6 104 -34 61 c-48 87 -65 162 -72 318 l-6
138 -66 0 c-137 0 -254 54 -360 165 l-68 72 -18 -78 c-49 -217 -208 -455 -400
-597 -312 -231 -668 -187 -901 111 -60 76 -140 233 -171 332 l-18 60 -2 -45
c-12 -223 -60 -505 -98 -579 -13 -25 -37 -59 -53 -74 -30 -28 -30 -30 -25
-108 7 -93 -10 -147 -60 -199 -45 -46 -101 -70 -170 -70 -118 0 -201 78 -231
220 -4 18 -21 33 -61 54 -111 58 -227 226 -259 376 l-14 65 -1 -65 c-2 -165
-52 -364 -117 -472 -94 -154 -226 -228 -434 -244 -202 -15 -350 61 -460 235
-25 39 -47 71 -50 71 -3 0 -18 -23 -35 -51 -48 -81 -155 -174 -261 -225 -169
-83 -347 -95 -517 -36 -205 70 -362 231 -523 536 l-58 110 -14 -44 c-20 -59
-89 -127 -145 -142 -39 -10 -47 -17 -75 -72 -62 -118 -195 -268 -293 -329 -10
-6 -19 -18 -19 -25 0 -7 18 -66 40 -130 83 -246 69 -422 -42 -517 -53 -45 -96
-58 -174 -53 -152 10 -215 117 -244 418 -6 63 -18 125 -26 137 -7 12 -46 41
-86 64 -136 79 -193 154 -239 311 -16 55 -22 112 -26 233 -5 146 -3 173 22
304 24 126 27 159 22 265 -7 148 -28 226 -101 378 -31 63 -64 150 -76 198 -64
271 -21 583 136 966 94 231 124 398 104 585 -22 217 -71 362 -229 673 -119
236 -153 337 -173 519 -19 172 5 350 84 627 36 125 64 183 131 272 102 136
301 273 454 313 73 19 200 19 282 0 293 -69 471 -384 471 -833 l0 -126 28 45
c32 49 100 114 138 131 22 10 25 16 19 42 -39 187 -47 388 -20 518 9 42 39
123 71 189 61 130 100 270 135 488 21 133 21 136 3 185 -25 70 -23 187 6 296
21 80 22 98 17 335 -5 246 -24 452 -53 590 -39 181 -29 326 42 610 25 99 52
209 61 245 66 263 531 908 827 1146 310 248 762 287 1179 100 151 -67 268
-173 328 -296 l34 -70 37 80 c48 103 133 235 218 335 57 67 90 94 200 164 341
216 615 314 875 313 145 0 240 -22 365 -84 68 -34 103 -60 175 -133 58 -58
102 -112 123 -152 18 -35 35 -63 37 -63 2 0 20 27 39 59 58 94 185 207 302
267 117 61 197 88 348 120 144 30 322 32 451 5z"/>
<path d="M8310 11704 c-219 -40 -365 -103 -474 -205 -110 -103 -172 -237 -190
-414 -3 -33 -15 -145 -27 -250 -13 -114 -19 -212 -15 -244 11 -93 54 -245 143
-511 95 -281 91 -260 84 -534 -3 -136 4 -161 37 -140 9 6 27 28 39 49 l21 38
7 -49 c12 -82 33 -167 60 -238 121 -322 39 -773 -214 -1170 -78 -122 -117
-208 -142 -311 -26 -110 -24 -202 11 -470 16 -127 34 -292 39 -368 8 -121 13
-146 40 -202 37 -81 72 -105 152 -105 67 0 113 -26 142 -82 10 -21 22 -38 26
-38 3 0 7 64 7 143 0 135 1 146 33 232 56 154 133 278 300 485 106 132 335
365 463 472 231 192 465 500 519 683 52 172 141 265 125 129 -7 -58 1 -69 39
-60 32 8 34 32 13 143 -29 154 -48 329 -55 498 -5 155 -5 164 25 285 53 217
113 348 223 484 84 105 102 150 107 267 7 169 -52 341 -161 467 -31 35 -126
168 -213 295 -201 297 -266 380 -356 457 -260 226 -533 314 -808 264z m755
-483 c-11 -5 -39 -29 -63 -55 -49 -53 -53 -83 -25 -198 19 -79 13 -101 -30
-106 -37 -5 -52 25 -82 158 -15 62 -29 118 -32 123 -3 5 -12 -5 -19 -23 -17
-40 -36 -35 -49 14 l-11 37 -24 -26 c-13 -14 -26 -25 -30 -25 -9 0 -30 47 -30
68 0 13 3 12 16 -6 18 -26 31 -28 55 -6 24 22 49 11 49 -21 0 -33 14 -32 29 2
8 17 15 23 22 16 6 -6 27 -70 47 -144 27 -94 42 -134 52 -134 13 0 14 18 11
107 -3 94 -1 112 19 153 22 46 59 74 95 74 20 0 20 0 0 -8z m-440 -380 c100
-45 156 -157 189 -379 16 -106 30 -147 47 -137 5 4 9 21 9 38 0 40 20 81 41
85 13 2 17 -10 22 -60 3 -35 28 -135 56 -222 71 -220 85 -297 78 -421 -8 -156
-67 -312 -170 -452 -112 -151 -142 -257 -198 -693 -32 -256 -56 -363 -101
-454 -58 -115 -106 -136 -139 -61 -42 96 -35 214 32 510 38 166 103 740 95
836 -8 91 -36 178 -107 327 -33 70 -75 170 -94 222 -18 52 -52 134 -74 181
-62 127 -84 245 -85 449 -1 238 8 249 229 249 105 1 138 -3 170 -18z m230
-2421 c7 0 20 9 30 20 29 32 37 11 42 -97 5 -121 9 -143 28 -143 25 0 35 45
28 128 l-6 78 55 47 c60 51 69 55 88 32 11 -13 10 -14 -4 -9 -12 4 -33 -10
-70 -47 l-54 -54 5 -66 c7 -84 -9 -139 -41 -139 -33 0 -44 32 -49 143 -2 54
-7 100 -10 103 -3 3 -19 -5 -36 -17 -39 -29 -50 -19 -57 52 l-5 54 23 -42 c12
-24 27 -43 33 -43z"/>
<path d="M6685 11666 c-173 -33 -390 -129 -610 -268 -102 -65 -129 -88 -180
-153 -127 -161 -199 -304 -253 -505 -23 -86 -26 -113 -26 -285 0 -119 4 -212
12 -250 27 -124 75 -263 120 -345 126 -234 215 -440 275 -640 60 -198 72 -270
71 -430 l0 -145 -66 -215 c-69 -225 -168 -531 -244 -759 -142 -422 -184 -862
-102 -1053 27 -63 73 -102 190 -160 194 -97 391 -146 626 -155 l152 -6 0 159
c0 154 -12 346 -25 418 l-7 36 -97 -3 -96 -2 -70 47 c-95 63 -179 153 -215
230 -28 58 -30 71 -30 173 1 61 7 144 15 185 8 41 25 134 39 205 14 72 38 198
53 282 27 145 29 152 50 147 25 -7 37 12 53 80 6 29 11 233 11 529 l1 482 -52
230 -52 230 -5 225 c-6 245 9 554 32 665 42 200 184 331 371 343 90 6 112 -6
151 -81 l28 -52 -3 -327 c-4 -429 6 -496 117 -776 130 -325 156 -442 156 -682
-1 -152 -4 -192 -28 -304 -35 -164 -96 -351 -158 -487 -55 -119 -69 -178 -69
-287 0 -153 51 -397 104 -501 13 -25 38 -73 55 -106 25 -47 33 -77 36 -132 4
-68 7 -75 70 -167 82 -122 122 -199 155 -305 l26 -84 38 49 c46 60 109 188
131 269 12 41 19 115 22 235 6 201 -8 330 -58 528 -29 116 -30 127 -19 200 16
104 63 230 115 305 89 130 150 284 175 439 19 116 7 355 -23 493 -48 214 -108
385 -233 660 -88 194 -98 251 -91 505 5 196 8 217 63 445 25 99 25 355 1 445
-56 209 -190 357 -376 417 -65 20 -241 25 -326 9z m324 -1300 c6 -7 14 -42 17
-77 11 -125 21 -137 56 -64 38 77 51 49 63 -132 4 -57 11 -103 16 -103 15 0
31 42 44 114 8 42 14 58 14 39 2 -82 -38 -197 -67 -191 -32 6 -44 54 -43 174
0 63 -2 114 -4 114 -3 0 -13 -17 -24 -39 -21 -41 -48 -58 -65 -41 -5 5 -12 51
-16 103 -3 51 -9 98 -14 105 -10 16 9 15 23 -2z m-1243 -3542 c8 -44 21 -43
30 1 5 28 11 35 30 35 18 0 26 -8 35 -40 16 -53 29 -51 29 5 0 39 3 45 25 51
38 9 55 -2 55 -36 0 -39 13 -38 31 2 17 38 34 46 44 21 4 -10 11 -64 15 -120
10 -112 22 -169 44 -198 14 -18 15 -14 16 50 0 42 9 99 22 143 26 88 48 108
105 97 l38 -8 -27 -11 c-71 -31 -107 -98 -108 -201 0 -100 -38 -148 -74 -92
-21 33 -46 166 -46 249 l0 73 -23 -29 c-27 -33 -60 -33 -65 2 -6 39 -35 22
-45 -26 -12 -60 -45 -54 -61 11 -9 37 -22 34 -36 -8 -16 -50 -47 -48 -55 3 -3
20 -8 48 -11 61 -5 21 -3 23 10 12 9 -7 18 -28 22 -47z"/>
<path d="M4445 11255 c-142 -26 -268 -86 -377 -179 -125 -108 -355 -379 -501
-593 -148 -214 -221 -357 -247 -483 -10 -47 -35 -148 -55 -225 -46 -176 -57
-332 -31 -471 67 -368 84 -845 36 -1024 -28 -106 -27 -164 5 -195 l24 -25 -24
-168 c-45 -304 -81 -443 -160 -612 -76 -161 -90 -266 -60 -465 26 -172 91
-337 175 -443 50 -64 139 -131 242 -183 193 -97 342 -106 667 -40 259 53 394
69 448 53 34 -10 42 -18 51 -51 7 -21 12 -52 12 -69 0 -43 17 -82 35 -82 23 0
29 46 16 118 -7 35 -11 66 -9 67 2 1 23 13 48 25 25 12 70 39 101 60 31 21
112 65 180 99 108 52 134 70 192 130 103 106 167 268 167 423 0 143 40 314
149 643 84 254 95 311 89 469 -8 188 -54 305 -161 403 -92 85 -163 108 -457
149 -329 46 -487 37 -610 -34 -218 -125 -420 -514 -421 -810 -1 -202 56 -334
181 -422 13 -9 32 -46 48 -95 22 -65 31 -81 49 -83 36 -5 58 13 107 88 53 79
76 94 172 111 112 19 157 56 194 163 21 62 46 188 56 286 9 87 21 115 84 183
89 97 189 140 267 114 51 -16 62 -51 62 -202 1 -262 -82 -480 -245 -641 -111
-110 -230 -174 -428 -230 -121 -34 -320 -44 -414 -20 -239 61 -368 254 -349
521 21 297 198 860 357 1135 73 128 80 178 56 427 -42 444 -41 501 15 661 76
213 185 369 306 435 181 98 321 -14 356 -284 11 -85 10 -90 -26 -220 -43 -159
-62 -267 -53 -303 6 -24 9 -25 29 -15 12 6 33 21 46 33 l24 21 -8 -40 c-8 -48
-23 -68 -45 -62 -14 4 -16 -12 -15 -133 l0 -137 43 -86 c45 -91 97 -152 136
-159 13 -3 77 9 143 25 75 19 128 28 146 23 31 -7 52 -44 68 -116 8 -38 15
-50 29 -50 29 0 43 36 51 135 5 72 14 107 44 175 55 124 58 212 14 375 l-32
120 -4 285 c-7 658 -5 624 -40 740 -19 66 -33 138 -37 195 -15 240 -97 377
-277 463 -200 97 -439 133 -634 97z m217 -287 c9 -8 18 -37 22 -73 4 -33 11
-64 17 -70 11 -10 13 -9 70 73 22 32 36 42 52 40 34 -5 45 -69 46 -270 1 -149
4 -179 17 -193 32 -31 39 -1 44 189 4 142 8 187 20 201 19 23 72 45 107 45
l28 -1 -27 -15 c-47 -25 -69 -83 -84 -228 -21 -205 -25 -227 -45 -247 -24 -24
-61 -24 -82 -1 -31 35 -40 100 -33 258 10 217 0 241 -66 154 -18 -24 -46 -51
-61 -60 -26 -14 -29 -14 -43 5 -12 15 -15 37 -11 93 6 78 3 83 -62 103 -21 6
-16 7 25 8 27 1 57 -5 66 -11z m606 -2771 c26 -27 47 -84 63 -169 21 -113 27
-109 84 45 13 37 25 52 51 64 19 9 37 14 40 10 4 -3 -13 -29 -37 -58 -32 -38
-49 -71 -64 -123 -17 -58 -24 -72 -42 -74 -34 -5 -63 31 -63 78 0 59 -18 128
-49 193 -29 59 -21 75 17 34z m-1869 -1347 c37 -19 54 -87 59 -237 4 -141 5
-143 27 -143 31 0 36 17 42 149 5 93 10 118 25 133 14 14 23 16 38 8 18 -10
22 -18 34 -72 9 -40 47 -38 76 5 19 28 21 29 15 7 -4 -14 -24 -42 -46 -63 -33
-32 -43 -36 -54 -27 -8 7 -15 24 -15 39 0 35 -10 71 -20 71 -8 0 -24 -87 -35
-195 -8 -72 -27 -105 -60 -105 -46 0 -58 37 -63 194 -5 146 -12 177 -55 224
-18 20 -19 22 -3 22 9 0 25 -4 35 -10z"/>
<path d="M9842 8404 c-151 -91 -260 -201 -318 -321 -53 -109 -103 -378 -136
-728 -17 -181 -17 -815 0 -1035 36 -461 63 -694 92 -790 11 -36 23 -90 27
-120 7 -65 20 -77 51 -47 19 18 26 19 42 9 28 -17 48 -15 77 8 33 26 41 18 18
-16 -15 -23 -22 -26 -57 -21 -47 6 -68 0 -68 -19 0 -8 -11 -19 -24 -24 l-24
-9 30 -123 c46 -195 96 -454 109 -567 25 -224 8 -322 -161 -934 -100 -363
-170 -523 -273 -630 -91 -93 -151 -102 -293 -44 -210 85 -352 67 -383 -49 -6
-25 -7 -94 -2 -193 l9 -153 42 -82 c57 -108 62 -133 48 -242 -13 -102 -1 -146
40 -152 25 -4 26 -2 27 128 0 105 4 107 125 49 l89 -42 108 6 c238 12 420 106
575 299 237 294 423 670 469 948 13 77 12 772 -1 965 -26 383 -76 694 -156
967 -14 48 -65 200 -114 338 -49 138 -101 299 -116 358 -24 98 -26 118 -21
242 12 289 136 882 239 1141 44 112 64 140 127 172 87 44 141 33 179 -36 14
-27 17 -57 16 -192 -1 -141 -5 -179 -34 -315 -28 -128 -34 -177 -34 -285 -1
-150 9 -183 87 -278 25 -30 55 -81 68 -114 25 -61 26 -71 16 -422 -1 -52 2
-76 11 -79 36 -12 65 193 60 416 -3 153 -5 150 88 177 50 14 53 18 68 63 34
109 41 168 41 377 0 212 -13 344 -75 792 -41 291 -95 394 -263 504 -140 92
-229 133 -301 137 -56 3 -66 0 -124 -34z m-184 -473 c7 -21 12 -54 12 -72 l0
-34 21 33 c15 22 29 32 46 32 l25 0 -7 -72 c-12 -123 -12 -123 11 -126 21 -3
22 1 25 86 5 110 22 138 79 127 19 -3 47 -7 63 -8 34 -2 34 -5 0 -18 -18 -7
-30 -6 -37 1 -14 14 -51 13 -63 -2 -6 -7 -15 -55 -20 -106 -14 -127 -48 -159
-89 -81 -14 27 -14 41 -5 87 18 90 16 97 -18 60 -39 -43 -50 -32 -60 60 -8 79
-1 93 17 33z"/>
<path d="M9020 7501 c-77 -42 -175 -172 -300 -399 -199 -360 -260 -655 -239
-1162 11 -248 19 -276 165 -561 237 -462 259 -516 276 -676 15 -148 -17 -414
-56 -469 -12 -16 -16 -16 -31 -4 -26 21 -44 63 -102 233 -29 87 -64 180 -78
207 -33 65 -80 110 -114 110 -34 0 -53 -20 -81 -85 -42 -97 -61 -195 -70 -364
-10 -178 -14 -201 -35 -201 -22 0 -53 52 -86 146 -17 49 -72 176 -121 283
l-90 193 -9 142 c-6 77 -7 219 -3 315 l7 175 24 -64 c30 -80 52 -99 73 -61 12
23 -13 111 -61 218 -47 105 -60 187 -68 423 -9 232 -16 271 -68 339 -51 68
-103 100 -192 121 -63 15 -107 50 -161 130 -72 106 -174 122 -200 32 -6 -20
-14 -109 -17 -197 -4 -125 -2 -184 11 -269 24 -148 109 -486 205 -811 59 -200
94 -345 136 -560 76 -390 99 -491 143 -615 l36 -105 -2 -228 c-3 -256 3 -298
63 -425 41 -86 118 -172 182 -202 60 -28 145 -31 194 -7 102 51 159 220 174
520 9 158 16 175 82 184 53 7 57 -1 78 -153 46 -342 76 -414 177 -414 37 0 78
23 78 45 0 25 31 45 68 45 45 0 55 -6 76 -47 21 -42 52 -44 61 -5 3 16 -1 88
-10 161 -8 73 -15 141 -15 151 0 9 25 54 56 100 128 188 149 268 148 585 0
212 -2 245 -31 420 -68 404 -127 692 -183 892 -58 207 -75 336 -74 578 1 271
13 351 96 605 77 237 107 369 115 500 6 124 -4 174 -47 215 -40 38 -126 46
-180 16z m115 -225 c-21 -32 -55 -198 -53 -261 1 -62 -8 -92 -32 -105 -46 -25
-74 33 -68 138 3 62 -5 75 -30 50 -23 -23 -33 12 -27 85 6 60 4 67 -11 67 -15
0 -16 2 -5 13 21 21 41 -19 41 -85 0 -55 1 -58 19 -48 32 17 28 30 45 -144 6
-58 13 -67 32 -42 9 13 14 46 14 97 0 106 48 259 80 259 6 0 3 -11 -5 -24z
m-391 -3312 c9 -8 16 -24 16 -34 0 -29 20 -34 41 -11 23 25 64 28 73 5 3 -9 6
-81 6 -160 0 -83 4 -144 9 -144 6 0 17 10 25 22 13 19 15 43 10 143 -6 107 -5
122 11 135 15 12 21 12 47 -3 44 -25 78 -21 114 14 29 28 32 29 27 10 -13 -49
-93 -78 -143 -51 -30 16 -34 -4 -32 -144 1 -83 -2 -134 -9 -143 -16 -18 -53
-16 -79 5 -21 17 -23 28 -27 152 -2 74 -6 136 -8 139 -3 2 -13 -3 -23 -12 -10
-10 -24 -17 -30 -17 -14 0 -32 33 -32 59 0 27 -17 27 -40 -1 -22 -26 -47 -18
-61 20 -10 28 5 29 24 2 14 -20 14 -20 31 5 19 29 29 31 50 9z"/>
<path d="M6550 7261 c-86 -27 -179 -115 -164 -154 8 -23 71 -33 108 -17 64 27
107 24 153 -9 45 -32 90 -88 126 -156 22 -39 22 -49 22 -440 0 -220 -2 -598
-4 -840 -6 -713 2 -787 126 -1150 99 -289 121 -360 148 -480 13 -60 36 -144
50 -185 120 -350 138 -654 47 -780 -77 -109 -184 -92 -245 38 l-32 67 -2 220
c-2 320 -11 386 -75 550 -38 98 -58 134 -168 300 -172 258 -248 399 -300 560
-31 93 -33 109 -33 235 0 163 22 273 93 465 26 72 58 161 69 200 24 77 65 294
76 395 l6 66 -83 1 c-64 0 -97 6 -144 25 l-62 25 -6 -76 c-17 -180 -85 -464
-156 -643 -48 -120 -73 -215 -94 -358 -31 -203 -20 -334 40 -505 20 -55 51
-145 71 -200 19 -55 57 -142 84 -193 173 -322 222 -478 269 -857 48 -390 121
-596 260 -734 86 -86 158 -123 254 -129 136 -8 260 46 393 171 193 183 273
377 273 666 0 226 -45 467 -175 941 -117 425 -151 566 -175 710 -28 174 -57
467 -70 710 -23 434 -40 567 -104 820 -50 194 -107 348 -162 437 -59 97 -214
255 -275 282 -55 24 -106 32 -139 22z m800 -2889 c0 -4 -4 -12 -10 -18 -5 -5
-12 -47 -16 -94 -4 -47 -11 -91 -17 -97 -5 -7 -24 -13 -43 -13 -35 0 -37 3
-49 75 l-7 40 -14 -28 c-16 -30 -23 -33 -46 -14 -19 14 -36 137 -20 137 12 0
22 -24 22 -55 0 -30 10 -55 21 -55 5 0 9 6 9 13 0 6 7 21 15 31 20 26 42 7 50
-43 12 -70 16 -81 30 -81 20 0 23 8 35 105 6 49 13 92 16 97 7 10 24 10 24 0z"/>
<path d="M2002 7200 c-100 -21 -279 -140 -349 -232 -59 -77 -79 -122 -118
-265 -47 -174 -65 -287 -65 -407 0 -196 31 -300 178 -589 163 -319 219 -507
228 -767 9 -222 -20 -370 -117 -602 -101 -242 -149 -450 -149 -645 0 -151 19
-231 90 -383 118 -250 146 -478 89 -734 -39 -176 -35 -368 11 -502 25 -72 46
-95 134 -146 89 -52 150 -108 175 -161 14 -29 24 -90 36 -200 17 -168 36 -240
64 -235 53 10 52 142 -4 300 -49 140 -54 163 -55 238 0 80 11 97 87 140 32 18
93 68 135 111 93 95 139 183 167 315 24 112 43 159 70 173 29 16 33 2 25 -79
-6 -68 -6 -69 19 -75 14 -4 31 -4 36 0 20 12 11 111 -23 251 -21 85 -38 190
-45 269 -12 138 -38 255 -95 426 -47 140 -56 201 -63 419 -5 154 -3 195 11
242 18 63 61 108 102 108 37 0 118 -44 149 -82 39 -45 99 -176 129 -280 26
-89 33 -133 86 -529 61 -459 111 -668 204 -844 106 -204 202 -325 310 -394 91
-57 158 -74 275 -69 86 3 105 7 173 40 210 100 298 297 239 530 -25 98 -50
146 -183 356 -64 100 -122 204 -138 247 -16 42 -53 120 -84 174 -54 96 -57
106 -92 283 -76 390 -131 582 -197 680 -51 76 -175 201 -261 263 -98 70 -181
104 -277 115 -60 7 -88 15 -103 29 -19 20 -19 20 15 59 19 22 77 101 129 177
95 139 132 175 181 175 39 0 46 -15 53 -115 10 -137 17 -160 46 -160 37 0 36
32 -6 212 -44 190 -46 226 -12 284 41 69 155 217 226 293 68 73 120 167 129
234 11 81 -37 121 -233 192 -105 38 -144 61 -144 86 0 20 -108 227 -133 255
-40 45 -71 61 -98 50 -62 -23 -105 -110 -118 -237 -11 -101 -48 -278 -85 -404
-35 -119 -112 -321 -130 -339 -14 -13 -18 -13 -37 5 -58 53 -84 164 -98 429
-6 105 -14 214 -17 244 -4 30 -1 130 7 224 33 433 -59 733 -254 822 -59 27
-160 38 -225 25z m152 -366 c-24 -36 -51 -90 -60 -120 -14 -48 -42 -84 -67
-84 -4 0 -17 21 -28 47 -11 27 -23 43 -28 37 -5 -5 -11 -42 -14 -82 -4 -77
-14 -94 -52 -90 -24 3 -43 65 -44 142 l-1 49 -34 -6 c-40 -6 -56 6 -56 45 0
22 -5 28 -22 28 -16 0 -19 3 -11 11 19 19 51 0 63 -37 l12 -36 22 21 c12 12
25 21 29 21 14 0 29 -55 35 -125 6 -55 11 -70 25 -73 15 -3 17 5 17 65 0 37 3
78 6 90 13 48 65 35 84 -22 6 -19 16 -35 21 -35 14 0 35 41 59 115 21 68 48
105 75 105 8 0 -5 -28 -31 -66z m-30 -2206 c11 -15 16 -45 16 -90 0 -38 3 -68
7 -68 4 0 19 12 34 26 45 43 52 26 47 -102 -4 -90 -2 -116 9 -125 7 -7 16 -9
19 -6 3 3 12 69 19 148 16 167 23 180 79 154 22 -11 46 -15 62 -11 19 5 25 3
22 -6 -5 -14 -72 -17 -100 -4 -26 12 -37 -20 -55 -173 -14 -124 -18 -141 -35
-141 -10 0 -27 9 -37 19 -18 18 -19 29 -14 109 3 50 3 98 -1 108 -6 15 -9 15
-31 -6 -14 -13 -31 -20 -39 -17 -17 7 -20 30 -17 119 2 50 0 57 -20 63 -17 6
-19 9 -8 16 21 13 26 11 43 -13z"/>
<path d="M5413 6241 c-67 -23 -123 -62 -181 -126 -67 -75 -109 -149 -157 -283
-23 -64 -53 -139 -65 -167 -13 -27 -37 -88 -54 -135 -30 -80 -33 -85 -63 -88
-29 -3 -36 3 -86 70 -143 193 -331 355 -502 435 -48 22 -75 28 -131 28 -62 0
-80 -5 -145 -38 -92 -46 -155 -100 -231 -195 -114 -144 -153 -248 -173 -462
-28 -292 -28 -300 -17 -300 6 0 14 9 17 21 4 11 9 19 11 16 3 -2 11 -69 20
-148 8 -79 19 -163 25 -186 5 -24 70 -189 143 -366 74 -177 144 -351 155 -387
97 -308 162 -464 227 -541 51 -61 126 -173 158 -238 17 -33 37 -103 52 -180
46 -239 54 -314 54 -523 0 -201 0 -203 27 -256 37 -74 94 -136 149 -162 40
-20 57 -22 147 -18 78 4 113 10 149 27 121 58 183 181 208 416 13 118 2 250
-32 378 -23 86 -45 116 -35 48 6 -44 -10 -71 -41 -71 -37 0 -55 36 -67 140 -8
62 -19 80 -47 80 -10 0 -16 4 -13 10 3 6 16 10 29 10 27 0 48 -42 70 -139 24
-105 39 -98 41 22 2 92 -7 117 -102 290 -30 53 -61 116 -69 140 -8 23 -26 59
-40 80 -29 44 -26 55 12 38 14 -6 30 -9 34 -6 12 8 -16 77 -57 142 -88 141
-214 437 -282 668 -44 146 -67 274 -92 512 -26 247 -22 306 22 311 43 5 95
-72 159 -233 55 -137 274 -490 380 -612 74 -85 246 -456 338 -729 22 -66 52
-178 66 -249 14 -71 46 -203 70 -294 55 -208 65 -254 76 -366 9 -103 34 -169
87 -233 45 -55 88 -82 131 -82 18 0 48 -7 67 -14 33 -14 35 -18 36 -63 0 -67
14 -142 28 -156 8 -8 15 -7 28 6 14 14 15 23 5 67 -22 94 -17 119 36 184 26
32 53 66 60 76 20 26 50 182 68 350 19 181 14 429 -11 580 -38 229 -160 636
-365 1215 -32 93 -57 199 -76 325 -22 153 -15 412 16 550 97 440 46 772 -125
819 -54 15 -81 13 -142 -8z m-364 -1231 c38 -38 63 -107 90 -245 36 -184 71
-319 91 -353 21 -34 56 -43 66 -17 3 8 -6 112 -19 232 -37 317 -41 367 -28
392 19 35 28 24 24 -26 -2 -27 7 -124 22 -218 51 -337 50 -319 31 -370 -22
-56 -55 -82 -85 -65 -45 24 -90 159 -116 346 -16 113 -39 208 -69 277 -17 43
-43 47 -61 10 -32 -64 -62 -65 -37 0 29 78 44 84 91 37z"/>
</g>
</svg>
