<?xml version="1.0" standalone="no"?>
<!DOCTYPE svg PUBLIC "-//W3C//DTD SVG 20010904//EN"
 "http://www.w3.org/TR/2001/REC-SVG-20010904/DTD/svg10.dtd">
<svg version="1.0" xmlns="http://www.w3.org/2000/svg"
 width="1472.000000pt" height="752.000000pt" viewBox="0 0 {width} {height}"
 preserveAspectRatio="xMidYMid meet">
<metadata>
Created by potrace 1.16, written by Peter Selinger 2001-2019
</metadata>
<g transform="translate(0.000000,752.000000) scale(0.100000,-0.100000)"
fill="#000000" stroke="none">
<path d="M2520 6226 c0 -19 -4 -46 -10 -60 -9 -26 -11 -26 -118 -26 -159 0
-149 24 -128 -313 9 -149 21 -337 27 -417 5 -80 14 -230 19 -335 5 -104 12
-208 15 -230 3 -22 10 -130 15 -240 10 -234 15 -254 41 -195 11 23 19 48 19
56 0 8 4 14 9 14 5 0 12 18 16 40 4 22 11 40 15 40 18 0 21 90 11 255 -6 94
-15 256 -21 360 -5 105 -14 244 -20 310 -5 66 -15 216 -22 334 l-12 214 29 22
c25 21 38 23 129 22 l100 -2 13 60 c7 33 12 75 13 93 l0 32 -70 0 -70 0 0 -34z"/>
<path d="M3642 6221 c-7 -21 -12 -48 -12 -60 0 -20 -4 -21 -113 -21 l-113 0
-18 -41 c-13 -28 -16 -54 -12 -87 3 -26 10 -101 15 -167 6 -66 15 -160 21
-210 5 -49 15 -144 21 -210 6 -66 17 -187 25 -270 8 -82 19 -210 24 -284 6
-74 13 -138 15 -142 3 -4 9 -71 15 -150 5 -79 13 -162 16 -183 l6 -39 20 49
c11 27 27 63 34 81 8 17 14 38 14 46 0 9 4 18 9 21 16 10 19 61 10 161 -40
436 -65 701 -89 937 -20 195 -25 343 -14 385 9 32 48 43 148 42 66 -1 91 2 96
12 5 8 11 49 15 92 l7 77 -64 0 -65 0 -11 -39z"/>
<path d="M4601 6223 c-6 -21 -11 -48 -11 -60 0 -20 -5 -23 -39 -23 -59 0 -121
-26 -158 -68 -18 -20 -33 -41 -33 -45 0 -5 -6 -23 -14 -40 -7 -18 -21 -52 -31
-77 -9 -25 -23 -58 -30 -75 -7 -16 -27 -68 -45 -115 -52 -141 -87 -227 -100
-252 -6 -10 -10 -23 -10 -30 0 -7 -6 -24 -13 -38 -7 -14 -24 -54 -37 -90 -12
-36 -27 -69 -32 -75 -4 -5 -8 -15 -8 -23 0 -13 -31 -89 -50 -124 -6 -10 -10
-23 -10 -29 0 -6 -6 -25 -14 -42 -7 -18 -23 -57 -35 -87 -12 -30 -26 -64 -30
-75 -12 -28 -35 -87 -72 -185 -18 -47 -36 -89 -41 -94 -4 -6 -8 -17 -8 -25 -1
-9 -9 -34 -20 -56 -11 -22 -19 -46 -20 -53 0 -7 -4 -20 -10 -30 -17 -31 -50
-111 -50 -122 0 -5 -4 -18 -10 -28 -5 -9 -25 -60 -45 -112 -39 -102 -61 -156
-74 -180 -7 -12 -32 -15 -130 -14 l-121 0 0 -33 0 -33 189 0 188 0 18 48 c10
26 23 61 30 77 7 17 34 84 60 150 26 66 53 134 60 150 7 17 34 86 60 155 26
69 51 129 56 134 5 6 9 17 9 25 1 9 9 34 20 56 11 22 19 48 20 57 0 9 4 19 9
23 5 3 13 20 17 37 3 18 10 39 15 48 13 23 44 99 64 155 10 28 22 54 27 60 4
5 8 15 8 23 0 7 9 32 19 55 17 37 30 72 88 222 8 22 21 54 28 70 7 17 20 50
30 75 10 25 24 59 31 77 8 17 14 35 14 40 0 10 22 60 41 95 5 10 9 23 9 30 1
7 9 31 20 53 11 22 19 46 20 53 0 7 4 20 10 30 5 9 18 37 29 62 29 68 68 97
156 117 53 12 75 22 75 33 0 28 -15 39 -60 42 l-45 3 3 58 c4 66 -3 73 -17 20z"/>
<path d="M5462 6200 l-13 -60 -42 0 c-60 0 -126 -26 -162 -63 -26 -27 -34 -47
-48 -122 -9 -49 -19 -117 -22 -150 -4 -33 -10 -73 -15 -90 -5 -16 -14 -68 -20
-115 -6 -47 -15 -107 -20 -135 -4 -27 -15 -97 -23 -155 -9 -58 -21 -134 -27
-170 -19 -119 -40 -253 -70 -455 -16 -110 -35 -220 -41 -245 -6 -25 -13 -85
-16 -135 -5 -81 -3 -93 16 -116 11 -15 38 -31 61 -37 38 -9 40 -9 40 13 0 13
12 97 26 187 31 192 38 239 57 373 8 55 18 111 21 125 4 14 11 57 16 95 12 82
33 220 55 360 9 55 23 145 31 200 8 55 22 141 30 190 7 50 19 130 25 179 11
83 14 91 53 131 23 24 53 46 67 50 23 6 27 14 37 78 7 40 15 84 18 100 5 19 2
27 -8 27 -9 0 -18 -21 -26 -60z"/>
<path d="M8262 6221 c-7 -21 -12 -48 -12 -60 0 -18 -6 -21 -48 -21 -54 0 -138
-25 -163 -49 -33 -32 -49 -68 -59 -132 -5 -35 -17 -107 -25 -159 -8 -52 -21
-140 -30 -195 -9 -55 -21 -134 -26 -175 -5 -41 -11 -83 -13 -92 -4 -16 4 -18
64 -18 l67 0 8 38 c4 20 13 78 21 127 7 50 18 117 23 150 5 33 17 107 25 165
31 210 51 236 195 265 103 21 96 13 106 128 l7 67 -65 0 -64 0 -11 -39z"/>
<path d="M9504 6203 l-9 -58 -40 -3 c-65 -4 -140 -31 -167 -60 -38 -41 -46
-71 -79 -292 -21 -144 -40 -270 -54 -360 -9 -52 -22 -138 -30 -190 -7 -52 -21
-140 -30 -195 -18 -112 -38 -240 -54 -360 -7 -44 -14 -87 -17 -95 -8 -22 -36
-226 -41 -302 -6 -82 10 -110 71 -131 l43 -15 6 52 c4 28 13 94 22 146 8 52
22 142 31 200 19 130 39 260 60 387 8 54 17 114 20 133 3 19 11 71 19 115 7
44 21 132 30 195 9 63 21 138 26 165 5 28 13 82 18 120 39 292 56 346 118 381
30 17 95 33 155 38 17 2 27 26 37 93 6 39 11 77 11 82 0 7 -27 11 -69 11 l-69
0 -8 -57z"/>
<path d="M7391 6103 c-6 -21 -13 -63 -16 -93 -3 -30 -12 -93 -20 -140 -8 -47
-21 -132 -30 -190 -9 -58 -20 -125 -25 -150 -5 -25 -12 -72 -16 -105 -4 -40
-13 -66 -26 -78 -12 -12 -18 -29 -16 -45 3 -27 4 -27 76 -26 40 1 75 4 77 6 3
3 10 29 15 59 11 53 16 88 45 284 8 55 21 143 30 195 8 52 20 129 25 170 11
74 21 93 47 83 14 -6 17 5 5 24 -11 17 -88 43 -128 43 -30 0 -34 -4 -43 -37z"/>
<path d="M5910 6061 c-30 -9 -69 -24 -86 -33 -36 -20 -124 -116 -124 -135 0
-7 -4 -13 -9 -13 -5 0 -12 -12 -16 -27 -3 -15 -10 -30 -14 -33 -4 -3 -18 -34
-30 -70 -13 -36 -27 -74 -31 -85 -12 -29 -31 -106 -69 -278 -5 -21 -16 -44
-26 -51 -9 -7 -16 -21 -14 -31 5 -22 62 -38 119 -33 33 3 35 5 48 63 95 401
186 577 330 641 43 19 71 24 137 24 90 0 109 10 103 52 -3 23 -5 23 -133 24
-95 2 -145 -2 -185 -15z"/>
<path d="M6631 6066 c-7 -8 -16 -50 -20 -94 -5 -44 -11 -84 -14 -89 -4 -6 -11
-48 -17 -94 -5 -46 -17 -127 -25 -179 -36 -224 -68 -426 -91 -580 -21 -143
-41 -267 -59 -380 -8 -52 -19 -129 -25 -170 -6 -41 -15 -91 -20 -110 -14 -49
-12 -152 3 -170 22 -28 61 -50 88 -50 24 0 27 4 27 38 0 33 12 120 41 297 30
187 53 337 61 390 4 33 13 89 19 125 5 36 24 155 41 265 16 110 34 220 40 245
5 25 12 74 15 110 4 36 10 79 15 95 5 17 14 71 20 120 7 50 14 107 17 128 l5
37 117 1 c64 1 126 0 139 -1 12 -1 22 4 22 12 0 38 -122 68 -273 68 -87 0
-117 -3 -126 -14z"/>
<path d="M2997 5463 c-4 -3 -7 -13 -7 -21 0 -8 -6 -28 -14 -45 -8 -18 -28 -63
-45 -100 -17 -38 -31 -73 -31 -79 0 -5 -6 -22 -14 -36 -8 -15 -24 -52 -36 -82
-11 -30 -25 -64 -30 -75 -40 -90 -62 -143 -186 -445 -21 -52 -42 -96 -46 -98
-5 -2 -8 -10 -8 -19 0 -14 -11 -42 -45 -118 -7 -16 -21 -48 -30 -70 -9 -22
-23 -53 -30 -70 -8 -16 -17 -42 -21 -57 -3 -16 -10 -28 -14 -28 -4 0 -10 -10
-13 -22 -9 -39 -31 -93 -48 -119 -16 -23 -21 -24 -135 -26 l-119 -1 0 -29 0
-28 187 -3 188 -2 19 42 c10 24 36 84 56 133 20 50 46 110 57 135 11 25 32 74
45 110 13 36 29 69 34 75 5 5 9 18 9 30 0 12 4 25 9 30 5 6 26 51 46 100 20
50 40 99 45 110 5 11 15 36 24 55 8 19 24 56 35 82 12 26 21 50 21 53 0 7 55
130 70 157 6 10 10 23 10 28 0 10 28 78 52 127 10 21 7 123 -8 256 -6 54 -12
65 -27 50z"/>
<path d="M7827 4973 c-28 -183 -59 -382 -92 -582 -23 -144 -21 -167 19 -207
26 -26 42 -34 70 -34 34 0 36 2 26 20 -6 11 -8 25 -5 30 3 5 13 58 21 117 8
60 21 149 28 198 8 50 19 124 25 165 6 41 13 87 17 102 3 15 11 70 19 124 8
57 19 100 27 105 7 5 167 8 356 8 365 -1 372 0 372 47 l0 24 -433 0 -432 0
-18 -117z"/>
<path d="M5131 4058 c-6 -17 -11 -43 -11 -58 0 -15 -6 -33 -14 -39 -10 -8
-113 -11 -356 -11 -360 1 -359 1 -360 -42 0 -17 27 -18 424 -18 l425 0 10 53
c6 28 12 68 13 87 l3 35 -51 6 c-29 4 -56 9 -62 13 -6 3 -15 -8 -21 -26z"/>
<path d="M6546 4068 c-3 -13 -9 -43 -13 -68 l-9 -45 -354 -2 -355 -2 -3 -31
-3 -30 420 0 c287 0 422 3 426 11 4 6 9 37 12 70 3 33 9 62 14 65 4 2 6 11 2
19 -3 10 -20 15 -50 15 -24 0 -53 5 -63 10 -16 9 -20 7 -24 -12z"/>
<path d="M7925 4036 c-3 -22 -11 -51 -17 -64 l-12 -23 -347 2 c-192 0 -353 -2
-358 -6 -6 -3 -11 -17 -11 -31 l0 -24 429 0 429 0 7 57 c4 31 11 68 16 81 13
33 5 39 -68 45 l-62 5 -6 -42z"/>
<path d="M9174 4066 c-3 -8 -8 -36 -12 -62 l-7 -49 -358 -1 c-197 -1 -360 -3
-362 -5 -2 -2 -6 -16 -10 -32 l-7 -27 431 0 c336 0 433 3 436 13 10 27 24 152
17 158 -4 4 -33 9 -65 13 -45 5 -59 3 -63 -8z"/>
<path d="M2958 3779 c-7 -5 -7 -32 1 -90 6 -46 18 -131 26 -189 41 -308 43
-321 90 -650 10 -63 19 -131 21 -150 3 -19 11 -84 20 -145 31 -227 43 -313 59
-425 9 -63 20 -140 25 -170 5 -30 11 -84 15 -120 9 -100 27 -132 83 -152 58
-21 69 -13 53 44 -6 24 -16 81 -21 128 -5 47 -16 135 -25 195 -29 202 -56 397
-89 645 -8 63 -19 144 -25 180 -5 36 -17 117 -26 180 -8 63 -20 142 -25 175
-5 33 -16 114 -25 180 -9 66 -22 161 -30 211 -8 49 -15 105 -15 122 0 18 -3
32 -7 33 -41 4 -96 3 -105 -2z"/>
<path d="M4476 3783 c-6 -7 3 -53 14 -68 4 -5 11 -26 15 -45 4 -19 11 -39 15
-45 4 -5 11 -25 15 -43 4 -18 13 -45 21 -60 8 -15 14 -34 14 -43 0 -9 3 -18 6
-22 8 -7 123 -340 135 -390 5 -21 13 -45 18 -55 18 -33 41 -103 41 -122 0 -11
4 -20 9 -20 5 0 12 -16 16 -36 3 -20 10 -44 15 -53 5 -9 18 -45 30 -81 12 -36
25 -72 30 -80 4 -9 11 -31 15 -50 4 -19 11 -39 15 -45 4 -5 11 -26 15 -45 4
-19 11 -39 15 -45 4 -5 11 -26 15 -45 4 -19 11 -41 16 -50 8 -14 27 -67 99
-280 54 -156 52 -152 61 -105 31 149 32 143 -10 261 -21 60 -62 179 -90 264
-28 85 -55 162 -60 170 -5 9 -12 30 -16 49 -4 18 -13 44 -21 59 -8 15 -14 35
-14 44 0 9 -4 19 -9 22 -4 3 -11 20 -15 37 -6 34 -92 284 -105 309 -5 9 -12
31 -16 50 -4 19 -11 41 -16 50 -5 8 -18 42 -28 75 -68 206 -143 421 -152 431
-10 12 -82 17 -93 7z"/>
<path d="M11429 3782 c-16 -3 -18 -11 -54 -247 -8 -49 -21 -137 -30 -195 -9
-58 -19 -125 -22 -148 -4 -37 -10 -45 -34 -54 -25 -8 -29 -15 -29 -45 l0 -35
88 7 c48 4 89 9 91 11 5 5 36 200 51 319 5 44 12 89 15 100 4 11 13 65 21 120
9 55 18 115 21 133 4 23 1 32 -8 33 -8 0 -32 1 -54 2 -22 2 -47 1 -56 -1z"/>
<path d="M12759 3779 c-7 -4 -9 -19 -5 -35 7 -32 46 -306 53 -369 2 -22 10
-85 18 -140 8 -55 21 -149 29 -210 8 -60 18 -126 21 -145 3 -19 12 -82 20
-140 7 -58 18 -132 24 -165 6 -33 11 -81 11 -107 0 -26 4 -49 9 -52 4 -3 11
-43 15 -88 4 -46 11 -105 16 -133 6 -27 14 -86 20 -130 41 -334 45 -349 108
-376 28 -12 49 -16 55 -10 8 8 0 81 -28 261 -7 47 -33 230 -50 360 -8 58 -16
114 -19 125 -3 11 -10 61 -16 110 -9 84 -15 128 -55 410 -9 61 -23 160 -30
220 -8 61 -21 157 -29 215 -9 58 -22 155 -31 215 -27 191 -25 185 -49 186 -11
1 -33 2 -49 3 -15 1 -32 -1 -38 -5z"/>
<path d="M9360 3698 c11 -12 35 -52 53 -88 30 -61 32 -73 35 -191 7 -250 -69
-449 -222 -584 -55 -49 -166 -115 -192 -115 -25 0 -15 -25 18 -45 66 -39 118
-112 138 -195 18 -74 16 -280 -3 -410 -51 -333 -52 -361 -18 -387 23 -18 66
-16 83 5 19 20 66 299 78 455 19 247 -27 387 -154 470 -34 22 -30 39 13 49 48
13 139 75 199 135 28 30 52 58 52 63 0 5 6 15 13 22 51 53 101 195 122 350 15
107 15 124 0 195 -8 43 -26 101 -40 128 -25 49 -85 125 -99 125 -4 0 -19 9
-33 20 -14 11 -34 20 -45 20 -18 0 -18 -1 2 -22z"/>
<path d="M7450 3691 c0 -5 14 -23 31 -40 34 -34 99 -152 99 -180 0 -9 4 -21 9
-26 17 -17 35 -175 36 -300 0 -175 -51 -565 -94 -715 -6 -19 -18 -62 -27 -95
-24 -88 -53 -175 -71 -215 -39 -87 -108 -222 -123 -238 -8 -9 -28 -36 -43 -59
-40 -58 -136 -147 -217 -199 -38 -24 -72 -44 -75 -44 -4 0 -21 -6 -38 -14 -44
-19 -172 -57 -247 -72 -19 -4 -273 -10 -565 -13 l-530 -6 -3 -32 -3 -33 547 0
c314 0 573 4 608 10 177 29 236 41 286 62 169 69 308 182 403 326 69 105 130
233 162 337 10 33 21 69 26 80 20 53 65 255 89 400 6 39 16 97 22 130 5 33 12
154 15 268 5 173 3 220 -11 280 -19 81 -48 169 -57 177 -3 3 -10 15 -13 28 -7
20 -106 127 -149 160 -25 18 -67 33 -67 23z"/>
<path d="M5673 3640 c-74 -35 -90 -73 -114 -270 -5 -47 -14 -98 -19 -115 -4
-16 -11 -57 -15 -90 -3 -33 -10 -80 -15 -105 -5 -25 -16 -92 -25 -150 -9 -58
-20 -132 -25 -165 -27 -172 -50 -321 -65 -420 -8 -60 -22 -148 -30 -195 -16
-96 -19 -116 -41 -250 -30 -192 -45 -296 -51 -343 -4 -38 -9 -48 -27 -53 -12
-3 -92 -4 -179 -2 -169 3 -175 1 -157 -47 l10 -25 234 0 c264 0 239 -8 251 85
4 28 10 73 15 100 5 28 18 113 30 190 12 77 32 208 45 290 13 83 27 173 30
200 3 28 10 68 16 90 5 22 14 74 19 115 13 104 36 257 55 370 9 52 22 138 30
190 8 52 21 138 29 190 8 52 20 127 25 165 17 109 35 141 98 170 30 15 81 28
117 32 72 6 78 20 21 47 -50 24 -207 21 -262 -4z"/>
<path d="M10314 3603 c-6 -4 -16 -46 -23 -93 -6 -47 -18 -128 -26 -180 -44
-274 -74 -483 -70 -490 2 -3 16 -5 32 -4 15 1 44 3 64 3 41 1 38 -7 59 161 6
47 15 96 20 110 5 14 12 59 15 100 4 41 10 91 15 110 5 19 14 67 20 105 6 39
13 80 16 93 l4 22 300 0 c171 0 300 4 300 9 0 5 -19 19 -42 32 -42 22 -52 23
-358 26 -173 2 -320 0 -326 -4z"/>
<path d="M6405 3588 c-5 -19 -39 -230 -60 -378 -26 -183 -44 -296 -55 -355 -6
-33 -15 -89 -21 -125 -5 -36 -23 -155 -40 -265 -16 -110 -36 -238 -44 -285 -7
-47 -21 -137 -30 -200 -9 -63 -21 -129 -26 -146 -5 -17 -9 -47 -9 -67 l0 -37
69 0 68 0 6 58 c4 31 14 98 22 147 9 50 22 131 30 180 18 120 41 267 60 390 9
55 23 145 31 200 9 55 22 141 30 190 7 50 20 135 29 190 8 55 22 145 30 200 9
55 20 129 25 164 5 36 14 69 19 74 5 5 127 7 275 5 146 -2 266 0 266 3 0 10
-57 35 -119 53 -71 21 -549 24 -556 4z"/>
<path d="M8354 3570 c-3 -8 -12 -58 -20 -110 -9 -52 -21 -135 -29 -185 -8 -49
-21 -137 -30 -195 -29 -188 -35 -233 -29 -241 4 -7 123 -1 132 7 2 1 10 49 18
106 16 114 40 277 48 323 3 17 13 76 22 133 l18 102 244 0 c209 0 243 2 233
14 -7 8 -29 22 -49 33 -32 15 -71 19 -294 23 -223 4 -259 3 -264 -10z"/>
<path d="M2535 3395 c-29 -64 -80 -177 -95 -210 -5 -11 -23 -51 -40 -90 -35
-78 -51 -113 -73 -165 -9 -19 -33 -73 -55 -120 -22 -47 -50 -107 -62 -135 -12
-27 -28 -64 -36 -82 -8 -17 -14 -36 -14 -42 0 -6 -4 -11 -9 -11 -5 0 -12 -11
-15 -24 -3 -14 -20 -54 -36 -89 -17 -36 -30 -70 -30 -76 0 -7 28 -11 76 -11
l75 0 21 48 c11 26 38 84 59 130 22 46 39 86 39 90 0 4 18 43 39 88 34 70 60
127 91 199 4 11 22 49 38 85 17 36 37 83 47 105 9 22 23 54 32 72 9 18 13 45
10 65 -2 18 -10 74 -16 123 -7 50 -14 95 -15 100 -2 6 -16 -17 -31 -50z"/>
<path d="M12335 3384 c-15 -33 -32 -72 -40 -89 -13 -28 -64 -140 -105 -230
-10 -22 -28 -62 -40 -90 -11 -27 -32 -72 -45 -100 -14 -27 -49 -106 -79 -175
-67 -155 -123 -277 -142 -312 -24 -44 -19 -48 64 -48 75 0 78 1 89 28 70 158
114 258 190 422 63 139 93 208 93 219 0 5 3 11 8 13 16 7 72 152 72 187 0 43
-27 221 -34 228 -3 3 -17 -21 -31 -53z"/>
<path d="M4117 3339 c-3 -19 -13 -77 -21 -129 -8 -52 -22 -142 -31 -200 -33
-210 -45 -287 -55 -365 -5 -44 -12 -89 -16 -100 -3 -11 -12 -65 -20 -120 -8
-55 -19 -125 -24 -155 -71 -442 -77 -498 -59 -535 16 -32 62 -63 96 -64 20 -1
22 5 26 77 3 42 12 120 21 172 18 113 41 258 62 395 8 55 21 141 29 190 8 50
19 124 25 165 5 41 14 98 20 125 12 65 38 229 43 280 4 37 -20 137 -43 177 -6
10 -10 23 -10 30 -1 7 -9 31 -19 52 l-18 39 -6 -34z"/>
<path d="M10902 3152 c-41 -4 -43 -8 -78 -192 -15 -80 -31 -165 -36 -190 -5
-25 -15 -79 -23 -120 -8 -41 -21 -111 -29 -155 -8 -44 -22 -118 -30 -165 -9
-49 -24 -96 -36 -112 -41 -56 -19 -80 71 -76 43 2 64 8 70 18 4 8 22 94 39
190 17 96 38 204 45 240 8 36 21 108 31 160 9 52 19 102 22 110 3 8 11 49 18
90 7 41 18 101 24 133 7 32 9 61 6 65 -8 7 -48 9 -94 4z"/>
<path d="M8196 2578 c-6 -45 -34 -224 -51 -333 -8 -49 -22 -139 -30 -200 -9
-60 -20 -134 -26 -164 -15 -90 -12 -127 15 -156 23 -25 81 -49 96 -40 4 3 8
24 9 47 1 24 6 70 11 103 6 33 17 105 25 160 8 55 21 141 29 190 8 50 20 128
26 175 6 47 16 99 21 116 5 17 9 38 9 47 0 15 20 17 210 17 225 0 244 5 178
45 -30 18 -55 20 -275 23 l-242 3 -5 -33z"/>
<path d="M10136 2498 c-10 -62 -24 -151 -31 -198 -8 -47 -21 -134 -30 -195 -9
-60 -23 -146 -30 -190 -8 -44 -17 -104 -20 -132 l-7 -53 65 0 c36 0 68 4 72 9
3 5 12 58 21 118 20 135 39 260 58 383 8 52 19 127 25 165 6 39 13 85 16 103
l6 32 109 0 c119 0 131 7 87 48 -22 21 -33 22 -173 22 l-150 0 -18 -112z"/>
<path d="M11245 2327 c-3 -7 -9 -32 -14 -57 -5 -25 -19 -88 -30 -140 -12 -52
-26 -115 -31 -140 -6 -25 -16 -72 -24 -105 -19 -81 -45 -197 -61 -270 -25
-111 -28 -120 -39 -127 -6 -4 -357 -8 -779 -8 -605 0 -769 -3 -772 -12 -2 -7
-5 -22 -7 -33 -3 -20 3 -20 846 -20 l850 0 7 27 c8 29 -8 51 -32 46 -17 -4
-15 74 4 140 10 38 14 42 44 42 36 0 34 -4 67 145 64 293 78 354 86 380 19 62
24 124 9 129 -40 12 -120 14 -124 3z"/>
<path d="M1950 2090 c0 -5 -17 -47 -39 -92 -21 -46 -53 -113 -70 -151 -54
-116 -38 -177 46 -177 l38 0 37 88 c20 48 56 129 80 179 l43 93 330 2 330 3 0
30 0 30 -397 3 c-259 1 -398 -1 -398 -8z"/>
<path d="M11744 2063 c-19 -43 -57 -126 -103 -226 -52 -112 -35 -167 53 -167
29 0 36 5 50 34 9 19 16 40 16 48 0 7 7 22 15 32 8 11 15 28 15 37 0 10 3 19
8 21 4 2 18 28 32 58 14 30 27 57 30 60 3 3 10 19 15 35 l10 30 330 5 330 5 0
30 0 30 -392 3 -392 2 -17 -37z"/>
<path d="M9464 1879 c-4 -7 -13 -47 -20 -88 -7 -42 -16 -89 -20 -104 -7 -28
-6 -28 32 -22 74 13 104 28 110 55 3 14 10 36 14 50 5 14 10 45 12 70 l3 45
-62 3 c-40 2 -64 -1 -69 -9z"/>
<path d="M13208 1551 l-14 -66 -396 -3 -396 -2 -6 -26 c-4 -14 -4 -29 -1 -34
10 -16 925 -13 930 3 9 25 22 162 16 169 -3 4 -31 11 -62 16 l-57 9 -14 -66z"/>
<path d="M4077 1603 c-2 -4 -8 -30 -12 -58 -4 -27 -12 -53 -18 -57 -7 -4 -335
-8 -730 -8 l-717 0 -10 -26 c-6 -14 -8 -30 -4 -35 3 -5 329 -9 798 -9 l794 0
10 43 c6 23 14 63 17 88 l7 46 -39 7 c-21 4 -50 9 -65 12 -14 3 -28 2 -31 -3z"/>
<path d="M8330 1582 c0 -15 -4 -32 -9 -37 -5 -6 -11 -21 -13 -35 l-3 -25 -380
-5 -380 -5 -3 -32 -3 -33 445 0 c430 0 446 1 456 19 5 11 10 35 10 53 0 18 4
47 9 64 5 17 6 36 2 41 -3 6 -34 13 -68 17 l-63 7 0 -29z"/>
<path d="M2045 1548 c-4 -29 -13 -56 -19 -60 -6 -4 -131 -8 -279 -8 l-267 0
-10 -26 c-6 -14 -8 -30 -4 -35 3 -5 152 -9 349 -9 l344 0 6 38 c3 20 10 56 15
80 17 73 18 72 -59 72 l-69 0 -7 -52z"/>
<path d="M9329 1560 c-19 -21 -57 -52 -84 -67 -44 -23 -63 -27 -162 -31 -62
-2 -113 -8 -113 -12 0 -4 24 -18 53 -30 104 -46 284 -37 372 18 49 31 48 45
-5 46 -24 1 -25 3 -22 59 2 31 2 57 0 57 -3 0 -20 -18 -39 -40z"/>
<path d="M11857 1593 c-3 -5 -8 -28 -12 -53 -4 -25 -13 -48 -19 -52 -6 -4
-129 -7 -274 -7 -144 0 -267 -3 -272 -6 -6 -4 -10 -19 -10 -36 l0 -29 344 0
344 0 11 33 c5 17 13 60 17 95 l7 62 -66 0 c-36 0 -68 -3 -70 -7z"/>
</g>
</svg>
